<svg class="loader_img" height="23" width="16" xmlns:xlink="http://www.w3.org/1999/xlink" xmlns="http://www.w3.org/2000/svg" viewBox="0 0 16 23">
    <path class="loader_path" fill="#252537" fill-rule="evenodd" d="M 1.55 1.57 C 1.82 1.97 1.96 2.59 1.96 3.45 C 1.96 3.45 1.96 20.63 1.96 20.63 C 1.96 21.25 1.89 21.78 1.76 22.2 C 1.76 22.2 2.19 22.45 2.19 22.45 C 2.52 22.16 2.97 21.92 3.55 21.74 C 4.14 21.55 4.74 21.45 5.35 21.45 C 5.55 21.45 5.7 21.46 5.8 21.47 C 6.6 22.09 7.64 22.4 8.93 22.4 C 9.82 22.4 10.64 22.25 11.39 21.95 C 12.14 21.66 12.81 21.2 13.41 20.59 C 14.01 19.98 14.49 19.14 14.83 18.09 C 15.17 17.04 15.34 15.81 15.34 14.4 C 15.34 12.04 14.88 10.23 13.95 8.99 C 13.02 7.75 11.79 7.13 10.28 7.13 C 9.31 7.13 8.44 7.36 7.7 7.82 C 6.95 8.28 6.38 8.94 5.99 9.81 C 5.99 9.81 5.99 0.13 5.99 0.13 C 4.9 0.38 3.54 0.51 1.9 0.51 C 1.33 0.51 0.75 0.48 0.16 0.43 C 0.16 0.43 0.16 0.99 0.16 0.99 C 0.82 0.99 1.28 1.18 1.55 1.57 Z M 5.99 10.78 C 6.14 10.03 6.47 9.44 6.97 8.99 C 7.46 8.55 8.01 8.33 8.61 8.33 C 9.43 8.33 10.06 8.83 10.48 9.83 C 10.9 10.83 11.12 12.48 11.12 14.79 C 11.12 19.49 10.1 21.84 8.07 21.84 C 7.28 21.84 6.59 21.59 5.99 21.1 C 5.99 21.1 5.99 10.78 5.99 10.78 Z" />
</svg>