<?xml version="1.0" encoding="utf-8"?>
<!-- Generator: Avocode 2.3.2-ea60620 - http://avocode.com -->
<svg height="19" width="19" xmlns:xlink="http://www.w3.org/1999/xlink" xmlns="http://www.w3.org/2000/svg" viewBox="0 0 19 19">
    <path fill="#000000" fill-rule="evenodd" d="M 11.12 9.59 C 11.12 9.59 18.4 2.3 18.4 2.3 C 18.55 2.14 18.55 1.89 18.4 1.73 C 18.4 1.73 17.36 0.69 17.36 0.69 C 17.28 0.61 17.18 0.57 17.07 0.57 C 16.97 0.57 16.87 0.61 16.79 0.69 C 16.79 0.69 9.51 7.98 9.51 7.98 C 9.51 7.98 2.23 0.69 2.23 0.69 C 2.09 0.54 1.82 0.54 1.67 0.69 C 1.67 0.69 0.63 1.73 0.63 1.73 C 0.47 1.89 0.47 2.14 0.63 2.3 C 0.63 2.3 7.91 9.59 7.91 9.59 C 7.91 9.59 0.63 16.89 0.63 16.89 C 0.47 17.04 0.47 17.3 0.63 17.46 C 0.63 17.46 1.67 18.5 1.67 18.5 C 1.74 18.57 1.85 18.61 1.95 18.61 C 2.06 18.61 2.16 18.57 2.23 18.5 C 2.23 18.5 9.51 11.2 9.51 11.2 C 9.51 11.2 16.79 18.5 16.79 18.5 C 16.87 18.57 16.97 18.61 17.07 18.61 C 17.18 18.61 17.28 18.57 17.36 18.5 C 17.36 18.5 18.4 17.46 18.4 17.46 C 18.55 17.3 18.55 17.04 18.4 16.89 C 18.4 16.89 11.12 9.59 11.12 9.59 Z" />
</svg>