<?xml version="1.0" encoding="utf-8"?>
<!-- Generator: Avocode 2.3.2-ea60620 - http://avocode.com -->
<svg height="10" width="16" xmlns:xlink="http://www.w3.org/1999/xlink" xmlns="http://www.w3.org/2000/svg" viewBox="0 0 16 10">
    <path fill="#000000" fill-rule="evenodd" d="M 14.45 1.41 C 14.45 1.41 10.44 1.41 10.44 1.41 C 10.44 1.41 10.44 0.41 10.44 0.41 C 10.44 0.41 14.45 0.41 14.45 0.41 C 14.45 0.41 14.45 1.41 14.45 1.41 C 14.45 1.41 14.45 1.41 14.45 1.41 Z M 7.77 5.52 C 8.03 5.92 8.16 6.41 8.16 6.98 C 8.16 7.58 8.02 8.11 7.72 8.58 C 7.53 8.89 7.3 9.15 7.01 9.36 C 6.7 9.61 6.32 9.77 5.89 9.87 C 5.46 9.96 4.99 10 4.48 10 C 4.48 10 0 10 0 10 C 0 10 0 0 0 0 C 0 0 4.81 0 4.81 0 C 6.02 0.02 6.88 0.37 7.39 1.07 C 7.69 1.49 7.84 2 7.84 2.59 C 7.84 3.2 7.69 3.69 7.38 4.06 C 7.21 4.27 6.96 4.46 6.63 4.63 C 7.13 4.82 7.52 5.11 7.77 5.52 Z M 2.3 3.94 C 2.3 3.94 4.4 3.94 4.4 3.94 C 4.84 3.94 5.19 3.86 5.46 3.7 C 5.73 3.53 5.86 3.24 5.86 2.82 C 5.86 2.35 5.68 2.04 5.33 1.89 C 5.02 1.79 4.63 1.74 4.15 1.74 C 4.15 1.74 2.3 1.74 2.3 1.74 C 2.3 1.74 2.3 3.94 2.3 3.94 Z M 6.06 6.84 C 6.06 6.32 5.85 5.96 5.43 5.77 C 5.19 5.66 4.86 5.6 4.43 5.6 C 4.43 5.6 2.3 5.6 2.3 5.6 C 2.3 5.6 2.3 8.26 2.3 8.26 C 2.3 8.26 4.4 8.26 4.4 8.26 C 4.83 8.26 5.17 8.21 5.41 8.09 C 5.84 7.87 6.06 7.46 6.06 6.84 Z M 15.94 5.21 C 15.99 5.54 16.01 6.01 16 6.63 C 16 6.63 10.81 6.63 10.81 6.63 C 10.84 7.35 11.08 7.86 11.55 8.15 C 11.84 8.33 12.18 8.41 12.58 8.41 C 13.01 8.41 13.35 8.31 13.62 8.09 C 13.76 7.97 13.89 7.8 14 7.59 C 14 7.59 15.9 7.59 15.9 7.59 C 15.85 8.02 15.63 8.45 15.21 8.89 C 14.58 9.59 13.68 9.93 12.53 9.93 C 11.58 9.93 10.74 9.64 10.02 9.05 C 9.29 8.46 8.93 7.51 8.93 6.18 C 8.93 4.94 9.26 3.99 9.91 3.33 C 10.57 2.66 11.42 2.34 12.46 2.34 C 13.08 2.34 13.64 2.45 14.14 2.67 C 14.64 2.89 15.05 3.25 15.37 3.73 C 15.67 4.16 15.85 4.65 15.94 5.21 Z M 14.07 5.4 C 14.03 4.9 13.87 4.52 13.57 4.27 C 13.27 4.01 12.9 3.88 12.46 3.88 C 11.98 3.88 11.61 4.02 11.35 4.29 C 11.09 4.56 10.92 4.93 10.85 5.4 C 10.85 5.4 14.07 5.4 14.07 5.4 C 14.07 5.4 14.07 5.4 14.07 5.4 Z" />
</svg>