<?xml version="1.0" encoding="UTF-8" standalone="no"?>
<svg width="356px" height="352px" viewBox="0 0 356 352" version="1.1" xmlns="http://www.w3.org/2000/svg" xmlns:xlink="http://www.w3.org/1999/xlink">
    <!-- Generator: Sketch 41.2 (35397) - http://www.bohemiancoding.com/sketch -->
    <title>creative-market</title>
    <desc>Created with Sketch.</desc>
    <defs></defs>
    <g id="Page-1" stroke="none" stroke-width="1" fill="none" fill-rule="evenodd">
        <g id="creative-market" fill="#000000">
            <path d="M355.326,160.463 L342.718,34.187 C341.336,20.341 330.168,9.511 316.287,8.554 L194.552,0.161 C186.454,-0.397 178.501,2.52 172.685,8.182 L8.631,167.883 C-2.769,178.981 -2.892,197.258 8.358,208.507 L142.866,343.015 C153.904,354.053 171.763,354.173 182.948,343.284 L346.836,183.743 C353.064,177.682 356.189,169.112 355.326,160.463 Z M261.305,201.598 L240.76,236.403 L200.585,208.78 C197.935,206.958 194.353,209.003 194.575,212.211 L197.941,260.85 L157.524,260.85 L160.89,212.211 C161.112,209.003 157.53,206.957 154.88,208.78 L114.705,236.403 L94.16,201.598 L138.962,179.169 C141.792,177.752 141.792,173.714 138.962,172.297 L94.16,149.869 L114.705,115.064 L154.88,142.687 C157.53,144.509 161.112,142.464 160.89,139.256 L157.524,90.617 L197.941,90.617 L194.575,139.256 C194.353,142.464 197.935,144.51 200.585,142.687 L240.76,115.064 L261.305,149.869 L209.64,175.733 L261.305,201.598 Z M287.721,85.745 C276.72,85.745 267.803,76.827 267.803,65.827 C267.803,54.827 276.721,45.909 287.721,45.909 C298.722,45.909 307.639,54.827 307.639,65.827 C307.639,76.827 298.721,85.745 287.721,85.745 Z" id="Shape"></path>
        </g>
    </g>
</svg>