<?xml version="1.0" encoding="utf-8"?>
<!-- Generator: Avocode 2.3.2-ea60620 - http://avocode.com -->
<svg height="10" width="10" xmlns:xlink="http://www.w3.org/1999/xlink" xmlns="http://www.w3.org/2000/svg" viewBox="0 0 10 10">
    <path fill="#000000" fill-rule="evenodd" d="M 8.72 1.66 C 8.72 1.66 8.65 1.59 8.65 1.59 C 7.74 0.61 6.44 0 5 0 C 4.43 0 3.88 0.1 3.37 0.27 C 3.37 0.27 3.31 0.29 3.31 0.29 C 1.64 0.89 0.38 2.37 0.07 4.16 C 0.07 4.16 0.07 4.16 0.07 4.16 C 0.07 4.17 0.07 4.17 0.07 4.18 C 0.02 4.45 0 4.72 0 5 C 0 6.19 0.42 7.29 1.12 8.15 C 1.12 8.15 1.18 8.22 1.18 8.22 C 2.09 9.31 3.47 10 5 10 C 5.58 10 6.13 9.9 6.65 9.72 C 6.67 9.72 6.68 9.71 6.69 9.71 C 8.34 9.11 9.58 7.68 9.91 5.93 C 9.91 5.93 9.91 5.92 9.91 5.92 C 9.97 5.62 10 5.31 10 5 C 10 3.72 9.51 2.55 8.72 1.66 Z M 5 1 C 6.03 1 6.97 1.39 7.68 2.03 C 7.18 2.71 6.49 3.16 5.72 3.45 C 5.6 3.15 5.47 2.88 5.35 2.64 C 5 1.95 4.65 1.42 4.38 1.05 C 4.58 1.02 4.79 1 5 1 Z M 3.36 1.35 C 3.66 1.73 4.22 2.52 4.76 3.73 C 3.35 4.03 1.92 3.93 1.17 3.84 C 1.51 2.73 2.31 1.83 3.36 1.35 Z M 1 5 C 1 4.94 1 4.89 1 4.83 C 1.4 4.88 1.99 4.93 2.68 4.93 C 3.02 4.93 3.37 4.92 3.74 4.89 C 4.23 4.85 4.69 4.77 5.13 4.67 C 5.22 4.94 5.32 5.22 5.4 5.52 C 4.95 5.65 4.49 5.82 4.01 6.01 C 2.97 6.44 2.13 6.91 1.66 7.2 C 1.24 6.57 1 5.81 1 5 Z M 5 9 C 3.97 9 3.03 8.61 2.32 7.97 C 2.99 7.58 4.24 6.91 5.65 6.5 C 5.81 7.22 5.92 8.01 5.98 8.88 C 5.67 8.96 5.34 9 5 9 Z M 6.96 8.49 C 6.89 7.68 6.77 6.94 6.62 6.26 C 7.35 6.12 8.1 6.08 8.81 6.21 C 8.5 7.18 7.83 8 6.96 8.49 Z M 8.99 5.22 C 8.2 5.08 7.32 5.1 6.37 5.29 C 6.28 4.97 6.19 4.66 6.09 4.38 C 7.03 4.02 7.78 3.49 8.34 2.8 C 8.76 3.43 9 4.19 9 5 C 9 5.08 9 5.15 8.99 5.22 Z" />
</svg>