<?xml version="1.0" encoding="iso-8859-1"?>
<!-- Generator: Adobe Illustrator 19.0.0, SVG Export Plug-In . SVG Version: 6.00 Build 0)  -->
<svg version="1.1" id="Capa_1" xmlns="http://www.w3.org/2000/svg" xmlns:xlink="http://www.w3.org/1999/xlink" x="0px" y="0px"
	 viewBox="0 0 496 496" style="enable-background:new 0 0 496 496;" xml:space="preserve">
<path style="fill:#FCD770;" d="M48,344V168c0-17.672,14.328-32,32-32l0,0h336l0,0c17.672,0,32,14.328,32,32v176H48z"/>
<path style="fill:#AFB8C9;" d="M376,96h32c4.416,0,8,3.584,8,8v80c0,4.416-3.584,8-8,8h-32H120H88c-4.416,0-8-3.584-8-8v-80
	c0-4.416,3.584-8,8-8h32H376z"/>
<path style="fill:#ECECEC;" d="M405.528,280.832L336,256H160l-69.528,24.832C65,289.928,48,314.056,48,341.104V488h400V341.104
	C448,314.056,431,289.928,405.528,280.832z"/>
<path style="fill:#B6C1CE;" d="M448,488V341.104c0-27.048-17-51.176-42.472-60.272L336,256h-64l104.744,58.92
	C391.104,323,400,338.2,400,354.68V488H448z"/>
<path style="fill:#ECECEC;" d="M344,256H152l-7.448-10.432C123.384,215.936,112,180.424,112,144l0,0C112,68.888,172.888,8,248,8l0,0
	c75.112,0,136,60.888,136,136l0,0c0,36.424-11.384,71.928-32.552,101.568L344,256z"/>
<path style="fill:#B6C1CE;" d="M384,144L384,144C384,68.888,323.112,8,248,8c0,0,72,32,72,136c0,96-64,112-64,112h88l7.448-10.432
	C372.624,215.928,384,180.424,384,144z"/>
<path style="fill:#AFB8C9;" d="M360,488v-68.104c0-50.264,8.104-100.208,24-147.896l0,0c0,0-57.696,32-131.88,32S112,272,112,272
	l0,0c15.896,47.688,24,97.624,24,147.896V488H360z"/>
<rect x="168" y="344" style="fill:#ECECEC;" width="160" height="32"/>
<rect x="272" y="344" style="fill:#B6C1CE;" width="56" height="32"/>
<path style="fill:#39C3FC;" d="M296,224h-96c-26.512,0-48-21.488-48-48v-72c0-4.416,3.584-8,8-8h176c4.416,0,8,3.584,8,8v72
	C344,202.512,322.512,224,296,224z"/>
<path style="fill:#148CE0;" d="M344,176v-72c0-4.416-3.584-8-8-8h-40v128C322.512,224,344,202.512,344,176z"/>
<g>
	<rect x="48" y="408" style="fill:#FB5968;" width="88" height="32"/>
	<rect x="360" y="408" style="fill:#FB5968;" width="88" height="32"/>
</g>
<rect x="400" y="408" style="fill:#CD2C5A;" width="48" height="32"/>
<rect x="168" y="376" style="fill:#D3A06C;" width="160" height="112"/>
<rect x="272" y="376" style="fill:#B27946;" width="56" height="112"/>
<path d="M248,48V32c-5.792,0-11.584,0.448-17.232,1.328l2.464,15.816C238.064,48.384,243.032,48,248,48z"/>
<path d="M218.472,52.648l-4.936-15.216c-15.992,5.184-30.888,14.12-43.072,25.832L181.552,74.8
	C192,64.744,204.768,57.088,218.472,52.648z"/>
<path d="M200,232h96c30.88,0,56-25.12,56-56v-72c0-8.824-7.176-16-16-16H160c-8.824,0-16,7.176-16,16v72
	C144,206.88,169.12,232,200,232z M160,136h120v-16H160v-16h176v16h-40v16h40v40c0,22.056-17.944,40-40,40h-96
	c-22.056,0-40-17.944-40-40V136z"/>
<path d="M216,408c-13.232,0-24,10.768-24,24s10.768,24,24,24s24-10.768,24-24S229.232,408,216,408z M216,440c-4.408,0-8-3.584-8-8
	s3.592-8,8-8s8,3.584,8,8S220.408,440,216,440z"/>
<rect x="288" y="408" width="16" height="16"/>
<rect x="256" y="408" width="16" height="16"/>
<rect x="288" y="440" width="16" height="16"/>
<rect x="256" y="440" width="16" height="16"/>
<path d="M424,128.808V104c0-8.824-7.176-16-16-16h-27.336C358.776,36.336,307.552,0,248,0S137.224,36.336,115.336,88H88
	c-8.824,0-16,7.176-16,16v24.808c-18.232,3.72-32,19.88-32,39.192v173.104V344v152h416V344v-2.896V168
	C456,148.688,442.232,132.528,424,128.808z M408,104v80h-20.464c2.912-13.024,4.464-26.4,4.464-40c0-13.888-2.08-27.28-5.768-40H408
	z M248,16c70.576,0,128,57.424,128,128c0,34.96-10.744,68.48-31.064,96.92L339.88,248H156.12l-5.056-7.08
	C130.744,212.48,120,178.96,120,144C120,73.424,177.424,16,248,16z M368.08,416H440v16h-72v-12.104
	C368,418.6,368.064,417.304,368.08,416z M352,419.896V480h-16V336H160v144h-16v-60.104c0-45.384-6.48-90.28-19.216-133.728
	C149.2,295.816,198.152,312,252.12,312c52.192,0,95.976-15.16,118.816-24.944C358.376,330.232,352,374.824,352,419.896z M320,368
	H176v-16h144V368z M176,384h144v96H176V384z M56,416h71.92c0.008,1.304,0.08,2.6,0.08,3.896V432H56V416z M252.12,296
	c-47.4,0-91.704-13.6-116.384-22.84l25.64-9.16h173.24l26.856,9.592C339.192,282.768,298.984,296,252.12,296z M88,104h21.768
	C106.08,116.72,104,130.112,104,144c0,13.6,1.552,26.976,4.464,40H88V104z M56,168c0-10.416,6.712-19.216,16-22.528V184
	c0,8.824,7.176,16,16,16h24.744c5.728,17.792,14.2,34.696,25.296,50.216l2.92,4.088l-53.176,18.992
	C74.952,277.88,64.16,286.024,56,296.216V168z M56,341.104c0-23.6,14.936-44.8,37.168-52.744l13.992-5
	c11.8,37.92,18.68,77.016,20.384,116.64H56v-56V341.104z M56,448h72v32H56V448z M368,480v-32h72v32H368z M440,400h-71.544
	c1.712-39.624,8.584-78.72,20.384-116.64l13.992,5C425.064,296.304,440,317.504,440,341.104V344V400z M408.216,273.296
	l-53.176-18.992l2.92-4.088c11.096-15.52,19.568-32.432,25.296-50.216H408c8.824,0,16-7.176,16-16v-38.528
	c9.288,3.312,16,12.112,16,22.528v128.216C431.84,286.024,421.048,277.88,408.216,273.296z"/>
<g>
</g>
<g>
</g>
<g>
</g>
<g>
</g>
<g>
</g>
<g>
</g>
<g>
</g>
<g>
</g>
<g>
</g>
<g>
</g>
<g>
</g>
<g>
</g>
<g>
</g>
<g>
</g>
<g>
</g>
</svg>
