<?xml version="1.0" encoding="UTF-8"?>
<svg width="420px" height="123px" viewBox="0 0 420 123" version="1.1" xmlns="http://www.w3.org/2000/svg" xmlns:xlink="http://www.w3.org/1999/xlink">
    <!-- Generator: Sketch 52.1 (67048) - http://www.bohemiancoding.com/sketch -->
    <title>logo</title>
    <desc>Created with Sketch.</desc>
    <g id="Page-1" stroke="none" stroke-width="1" fill="none" fill-rule="evenodd">
        <g id="logo" transform="translate(-4.000000, -14.000000)">
            <g id="Group" transform="translate(170.000000, 43.000000)" font-family="Poppins-Bold, Poppins" font-size="42" font-weight="bold">
                <text id="Brand" fill="#364F6B">
                    <tspan x="0" y="44">Brand</tspan>
                </text>
                <text id="Icons" fill="#1BB5EC">
                    <tspan x="139" y="44">Icons</tspan>
                </text>
            </g>
            <g id="heart-rate">
                <rect id="Rectangle" x="0" y="0" width="150" height="150"></rect>
                <path d="M98.4375,75 L84.375,98.4375 L65.625,51.5625 L51.5625,75 L6.421875,75 C11.90625,98.4375 31.546875,123.9375 73.734375,135.9375 C74.5595545,136.187851 75.4404455,136.187851 76.265625,135.9375 C118.453125,124.125 138.09375,98.8125 143.578125,75 L98.4375,75 Z" id="Path" fill="#1BB5EC"></path>
                <path d="M107.8125,14.0625 C95.1048164,14.7064502 83.2290469,20.5764734 75,30.28125 C66.7709531,20.5764734 54.8951836,14.7064502 42.1875,14.0625 C21.796875,14.0625 4.6875,34.125 4.6875,60.9375 C4.6875,87.75 23.015625,121.546875 73.734375,135.9375 C74.5621603,136.169623 75.4378397,136.169623 76.265625,135.9375 C126.984375,121.546875 145.3125,87.796875 145.3125,60.9375 C145.3125,34.078125 128.109375,14.0625 107.8125,14.0625 Z M42.1875,23.4375 C52.21875,23.4375 62.859375,29.625 71.296875,40.40625 C72.1848108,41.5503721 73.5517439,42.2198117 75,42.2198117 C76.4482561,42.2198117 77.8151892,41.5503721 78.703125,40.40625 C87.140625,29.625 97.78125,23.4375 107.8125,23.4375 C123.375,23.4375 135.9375,39.984375 135.9375,60.9375 C135.91113,64.0823156 135.613147,67.218975 135.046875,70.3125 L98.4375,70.3125 C96.782497,70.3127888 95.2503014,71.1857836 94.40625,72.609375 L85.03125,87.9375 L69.796875,49.828125 C69.1408969,48.1642359 67.5952509,47.01864 65.8125,46.875 C64.0253902,46.7351337 62.3149983,47.6267213 61.40625,49.171875 L48.890625,70.3125 L14.953125,70.3125 C14.3868531,67.218975 14.0888704,64.0823156 14.0625,60.9375 C14.0625,39.890625 26.671875,23.4375 42.1875,23.4375 Z M75,126.5625 C41.8125,116.90625 24.375,98.4375 17.578125,79.6875 L51.5625,79.6875 C53.217503,79.6872113 54.7496986,78.8142164 55.59375,77.390625 L64.96875,62.0625 L80.203125,100.171875 C80.8591031,101.835764 82.4047491,102.98136 84.1875,103.125 L84.375,103.125 C86.030003,103.124711 87.5621986,102.251716 88.40625,100.828125 L101.109375,79.6875 L132.421875,79.6875 C125.625,98.109375 108.1875,116.71875 75,126.5625 Z" id="Shape" fill="#364F6B" fill-rule="nonzero"></path>
            </g>
        </g>
    </g>
</svg>