<?xml version="1.0" encoding="iso-8859-1"?>
<!-- Generator: Adobe Illustrator 19.0.0, SVG Export Plug-In . SVG Version: 6.00 Build 0)  -->
<svg version="1.1" id="Capa_1" xmlns="http://www.w3.org/2000/svg" xmlns:xlink="http://www.w3.org/1999/xlink" x="0px" y="0px"
	 viewBox="0 0 58 58" style="enable-background:new 0 0 58 58;" xml:space="preserve">
<g>
	<path d="M46,11.693c0-0.359-0.193-0.69-0.505-0.869c-0.312-0.177-0.696-0.175-1.004,0.009L30,19.408V1
		c0-0.347-0.18-0.668-0.474-0.851c-0.295-0.183-0.663-0.198-0.973-0.044l-16,8C12.214,8.275,12,8.621,12,9v19
		c0,0.254,0.097,0.495,0.264,0.677C12.099,28.858,12,29.094,12,29.347V47c0,0.359,0.193,0.69,0.505,0.869
		C12.658,47.956,12.829,48,13,48c0.176,0,0.352-0.047,0.509-0.14L28,39.284V57c0,0.338,0.17,0.652,0.453,0.837
		C28.618,57.945,28.809,58,29,58c0.136,0,0.272-0.027,0.401-0.084l16-7C45.765,50.757,46,50.397,46,50V30
		c0-0.114-0.026-0.222-0.062-0.326C45.974,29.569,46,29.461,46,29.347V11.693z M44,13.447v14.146l-11.952-7.073L44,13.447z
		 M14,9.618l14-7v17.728l-14,6.125V9.618z M14,45.246V31.1l11.952,7.072L14,45.246z M28.553,37.105
		c-0.081,0.041-0.155,0.093-0.221,0.152l-14.451-8.552l15.52-6.79c0.185-0.081,0.336-0.215,0.441-0.378l13.669,8.089L28.553,37.105z
		 M44,49.346l-14,6.125V38.618l14-7V49.346z"/>
</g>
<g>
</g>
<g>
</g>
<g>
</g>
<g>
</g>
<g>
</g>
<g>
</g>
<g>
</g>
<g>
</g>
<g>
</g>
<g>
</g>
<g>
</g>
<g>
</g>
<g>
</g>
<g>
</g>
<g>
</g>
</svg>
