<?xml version="1.0" encoding="utf-8"?>
<!-- Generator: Adobe Illustrator 17.1.0, SVG Export Plug-In . SVG Version: 6.00 Build 0)  -->
<!DOCTYPE svg PUBLIC "-//W3C//DTD SVG 1.1//EN" "http://www.w3.org/Graphics/SVG/1.1/DTD/svg11.dtd">
<svg version="1.1" id="Layer_1" xmlns="http://www.w3.org/2000/svg" xmlns:xlink="http://www.w3.org/1999/xlink" x="0px" y="0px"
	 viewBox="0 0 383.1975708 329.8231201" enable-background="new 0 0 383.1975708 329.8231201" xml:space="preserve">
<g id="XMLID_98_">
	<g id="XMLID_99_">
		<path id="XMLID_103_" fill="#D0D2D3" d="M258.997467,0.3754117c-1.9454041-0.9727108-3.5371704,0.011052-3.5371704,2.1861067
			v267.486908l117.1259155,58.5630188c5.8362427,2.9181519,10.6113586-0.0330811,10.6113586-6.5582581V64.569313
			c0-1.2832794-0.7250061-2.4563599-1.8728027-3.0301781L258.997467,0.3754117z"/>
		<path id="XMLID_102_" fill="#A6A8AB" d="M127.7372742,206.265274L253.4017792,2.060354
			c1.1399841-1.8524873,3.6643829-2.5722327,5.609787-1.5995219L380.3988647,61.15448
			c1.5117188,0.7558632,2.0504761,2.6452599,1.1646423,4.0847549L255.474411,270.1338501L127.7372742,206.265274z"/>
		<path id="XMLID_101_" fill="#808184" d="M14.1485329,5.7665153C6.3668466,1.8756722,3.7306802,4.7546535,8.2905178,12.16434
			L127.7372742,206.265274l127.7371368,63.868576L128.5631256,63.9029579
			c-0.5397949-0.8772736-1.3141251-1.5860748-2.2352905-2.046814L14.1485329,5.7665153z"/>
		<path id="XMLID_100_" fill="#58595B" d="M127.7372742,322.1386414c0,6.5251465-4.775238,9.4763794-10.6115036,6.5582275
			L7.0742006,273.6710205C3.1833572,271.7256165,0,266.5746765,0,262.2245789V6.6016045
			C0,2.2514954,3.1833572,0.2840595,7.0742006,2.229481l119.0880661,59.5440331
			c0.9651947,0.4825974,1.5750046,1.469017,1.5750046,2.5482407V322.1386414z"/>
	</g>
</g>
</svg>
