<?xml version="1.0" encoding="iso-8859-1"?>
<!-- Generator: Adobe Illustrator 16.0.0, SVG Export Plug-In . SVG Version: 6.00 Build 0)  -->
<!DOCTYPE svg PUBLIC "-//W3C//DTD SVG 1.1//EN" "http://www.w3.org/Graphics/SVG/1.1/DTD/svg11.dtd">
<svg version="1.1" id="Capa_1" xmlns="http://www.w3.org/2000/svg" xmlns:xlink="http://www.w3.org/1999/xlink" x="0px" y="0px"
	 width="468.051px" height="468.051px" viewBox="0 0 468.051 468.051" style="enable-background:new 0 0 468.051 468.051;"
	 xml:space="preserve">
<g>
	<g>
		<path d="M435.375,244.789c-0.098-0.1-0.195-0.162-0.26-0.262c-8.923-9.54-22.764-13.775-44.878-13.775
			c-7.944,0-18.69,0.553-29.244,1.693l0.164-177.712c0-13.905-11.3-25.206-25.206-25.206H25.173C11.268,29.527,0,40.829,0,54.733
			v310.745c0,13.939,11.267,25.204,25.173,25.204h83.436c1.659,2.541,3.384,5.082,5.34,7.459
			c22.013,26.77,60.507,40.383,114.435,40.383c41.099,0,83.566-7.619,111.704-12.669l10.29-1.823
			c34.163-5.926,52.79-13.45,64.416-25.826c5.013-1.888,11.463-5.24,13.999-10.39c1.308-2.765,1.5-5.794,0.457-8.596
			c-0.848-2.245-2.345-4.037-4.2-5.504c1.335-1.855,2.444-3.711,3.419-5.601c4.072-2.019,8.272-4.92,10.16-8.826
			c1.369-2.738,1.497-5.795,0.456-8.598c-1.106-2.898-3.289-5.047-5.961-6.709c-0.097-1.759-0.229-3.485-0.456-5.179
			c0.619-0.942,1.174-1.888,1.727-2.834c6.222-2.181,15.306-6.415,18.63-13.286c1.627-3.321,1.82-7.035,0.521-10.422
			c-2.216-6.024-8.272-9.477-14.655-11.527c0.163-0.781,0.456-1.531,1.106-2.181c1.401-2.606,3.385-5.311,5.049-8.24
			c7.522-2.834,17.52-7.882,21.331-15.729c1.985-4.072,2.212-8.632,0.649-12.799C462.6,249.965,446.286,246.092,435.375,244.789z
			 M428.764,289.99l-38.592,5.732l37.028,4.103c2.9,8.891,5.31,25.533-9.932,39.793c0,0,0.163,0.393,0.424,1.043l-30.45,4.041
			l32.241,3.125c0.781,5.08,0.585,11.755-3.193,18.007l-25.368,7.394l20.55-0.553c-0.064,4.008-3.938,21.036-62.983,31.297
			c-67.28,11.689-255.968,52.661-226.724-95.093C151.009,161.126,309.019,96.775,341.193,96.775v142.249
			c-17.455,2.768-32.92,5.797-46.535,8.827c-15.077-2.054-51-6.091-69.757-0.391l42.759,7.132
			c-38.493,10.553-55.2,19.932-55.2,19.932c44.746-12.96,95.03-20.713,118.378-23.904c39.697-4.397,83.499-1.562,92.26,7.785
			C438.078,274.392,433.291,284.875,428.764,289.99z"/>
	</g>
</g>
<g>
</g>
<g>
</g>
<g>
</g>
<g>
</g>
<g>
</g>
<g>
</g>
<g>
</g>
<g>
</g>
<g>
</g>
<g>
</g>
<g>
</g>
<g>
</g>
<g>
</g>
<g>
</g>
<g>
</g>
</svg>
