<?xml version="1.0" encoding="utf-8"?>
<!-- Generator: Avocode 2.3.2-ea60620 - http://avocode.com -->
<svg height="14" width="26" xmlns:xlink="http://www.w3.org/1999/xlink" xmlns="http://www.w3.org/2000/svg" viewBox="0 0 26 14">
    <path fill="#252537" fill-rule="evenodd" d="M 0 14 C 0 14 0 12 0 12 C 0 12 26 12 26 12 C 26 12 26 14 26 14 C 26 14 0 14 0 14 Z M 0 6 C 0 6 26 6 26 6 C 26 6 26 8 26 8 C 26 8 0 8 0 8 C 0 8 0 6 0 6 Z M 0 0 C 0 0 26 0 26 0 C 26 0 26 2 26 2 C 26 2 0 2 0 2 C 0 2 0 0 0 0 Z" />
</svg>