<svg height="448" viewBox="0 0 510 448" width="510" xmlns="http://www.w3.org/2000/svg" xmlns:xlink="http://www.w3.org/1999/xlink"><mask id="a" fill="#fff"/><mask id="b" fill="#fff"/><mask id="c" fill="#fff"/><mask id="d" fill="#fff"><path d="m124 144.610951v18.389049h4c39.764502 0 72 32.235498 72 72v9h-200v-9c0-39.764502 32.235498-72 72-72h4v-18.389049c-17.2373655-8.188579-29.6277754-24.92394-31.6948612-44.7297125-5.8248283-.8234519-10.3051388-5.8291289-10.3051388-11.8812385v-14c0-5.9459926 4.3245733-10.8819269 10-11.8340831v-6.1659169c0-30.927946 25.072054-56 56-56s56 25.072054 56 56v6.1659169c5.675427.9521562 10 5.8880905 10 11.8340831v14c0 6.0521096-4.48031 11.0577866-10.305139 11.8812385-2.067086 19.8057725-14.457496 36.5411335-31.694861 44.7297125z" fill="#fff" fill-rule="evenodd"/></mask><mask id="e" fill="#fff"><path d="m76 .0708856c-17.9186994 2.0050524-31.7201576 7.4809485-31.995797 21.574082-25.8577701 10.9231257-44.004203 36.5196581-44.004203 66.3545174v9.000515h200v-9.000515c0-29.8348593-18.146433-55.4313917-44.004203-66.3545018-.275639-14.0931491-14.077098-19.5690452-31.995797-21.5740976v18.9291144c0 13.254834-10.745166 24-24 24s-24-10.745166-24-24z" fill="#fff" fill-rule="evenodd"/></mask><mask id="f" fill="#fff"><path d="m76 .0708856c-17.9186994 2.0050524-31.7201576 7.4809485-31.995797 21.574082-25.8577701 10.9231257-44.004203 36.5196581-44.004203 66.3545174v9.000515h200v-9.000515c0-29.8348593-18.146433-55.4313917-44.004203-66.3545018-.275639-14.0931491-14.077098-19.5690452-31.995797-21.5740976v18.9291144c0 13.254834-10.745166 24-24 24s-24-10.745166-24-24z" fill="#fff" fill-rule="evenodd"/></mask><mask id="g" fill="#fff"><path d="m76 .0708856c-17.9186994 2.0050524-31.7201576 7.4809485-31.995797 21.574082-25.8577701 10.9231257-44.004203 36.5196581-44.004203 66.3545174v9.000515h200v-9.000515c0-29.8348593-18.146433-55.4313917-44.004203-66.3545018-.275639-14.0931491-14.077098-19.5690452-31.995797-21.5740976v18.9291144c0 13.254834-10.745166 24-24 24s-24-10.745166-24-24z" fill="#fff" fill-rule="evenodd"/></mask><mask id="h" fill="#fff"><path d="m.117844 2.1280772c1.0578681 9.4917253 9.1081433 16.8719228 18.882156 16.8719228 9.8042055 0 17.8740075-7.425864 18.8917593-16.9599454.0819092-.7673086-.7750164-2.0400546-1.8489923-2.0400546-14.8940134 0-26.3048457 0-33.9559426 0-1.0802076 0-2.0748186 1.1784435-1.9689804 2.1280772z" fill="#fff" fill-rule="evenodd"/></mask><mask id="i" fill="#fff"><path d="m.117844 2.1280772c1.0578681 9.4917253 9.1081433 16.8719228 18.882156 16.8719228 9.8042055 0 17.8740075-7.425864 18.8917593-16.9599454.0819092-.7673086-.7750164-2.0400546-1.8489923-2.0400546-14.8940134 0-26.3048457 0-33.9559426 0-1.0802076 0-2.0748186 1.1784435-1.9689804 2.1280772z" fill="#fff" fill-rule="evenodd"/></mask><mask id="j" fill="#fff"><path d="m0 0h264v280h-264z" fill="#fff" fill-rule="evenodd"/></mask><mask id="k" fill="#fff"><path d="m21.2519269 43.0221149c.1230084-.0544-.1822557-.0753-.9157924-.0626.8915292-.0018 1.1967934.019.9157924.0626m-8.1349494-15.7205225c-.0021353-.0196.0167773.1511 0 0m107.6480785 34.4640741c-.26411-3.3169325-.732106-6.6137801-1.51838-9.8545842-.624443-2.5757331-1.477669-5.033548-2.48667-7.491039-.609303-1.4846667-2.032468-3.5239371-2.199682-5.12555-.164858-1.5776406 1.066197-3.3253553 1.328961-5.1621565.255026-1.7875607.211624-3.6671234-.155102-5.4384865-.833039-4.0228215-3.593912-7.7638056-7.857016-8.8124345-.951805-.2342164-2.96375.0544238-3.636305-.4998561-.771133-.6355915-1.308101-2.8008789-2.006225-3.669391-1.990413-2.4759562-5.094797-4.0704422-8.36875-3.5145426-2.41097.4091499-1.026496.9077102-2.833882-.5111944-1.004964-.7888203-1.75591-1.9932695-2.731939-2.8472038-1.46724-1.2828453-3.150478-2.3810386-4.89192-3.2822699-4.556821-2.358038-9.753897-4.0720619-14.843984-4.90753107-9.285228-1.52418866-19.195236-.19534235-28.195494 2.21938717-4.478429 1.2015336-8.987137 2.7263701-13.146615 4.7429641-1.7834988.8646247-2.8130226 1.5818519-4.6725579 1.8082935-2.9287596.3566699-5.4090372.3388526-8.1833683 1.58088-8.5362999 3.8219719-12.3812012 12.6888301-9.0594729 21.1740742.6681811 1.7065729 1.5728835 3.2051695 2.8200877 4.5835803 1.5207345 1.6806569 2.0708232 1.3499031.7610401 3.2825937-1.9587868 2.8899654-3.6100622 5.9717096-4.9544991 9.1716959-3.5289788 8.4016648-4.119441 17.8642685-3.8896486 26.8244245.0804105 3.1368159.2149888 6.3121819.709564 9.4188704.213643 1.3447199.2735303 3.8731561 1.2821945 4.8709247.5117339.5060111 1.2408117.7881726 1.9682072.5866749 1.7094805-.4736161 1.1217099-1.7350806 1.1614105-2.9061629.1998488-5.883595-.0699807-11.0885129 1.3292969-16.9011627 1.0335612-4.2946161 2.7561631-8.1949841 4.9884802-12.0350972 2.8385922-4.8842067 5.9029395-9.1736396 9.8067188-13.3558449.9178238-.9835147 1.1183454-1.4004394 2.3490637-1.4717086.9319546-.0537758 2.2952325.5844073 3.2012807.8053418 1.9978145.4868981 3.9993295.968289 6.0334805 1.2961273 3.73993.6028725 7.443188.6433663 11.216763.5251243 7.426365-.2322728 14.884693-.7531857 22.084967-2.6233539 4.781903-1.2417035 9.021455-3.4708092 13.601826-5.1048171.081757-.0291556 1.229709-.8471315 1.430904-.8137645.280932.0463249 1.976955 1.8257869 2.26327 2.0499608 2.225588 1.7454471 4.666838 2.4782239 7.070406 3.8297467 2.963414 1.6664031.093532-.718199 1.727985 1.3586498.476407.6048162.72033 1.726334 1.102532 2.41149 1.215915 2.1827807 2.907564 4.1012175 4.930948 5.6234624 1.955086 1.4707368 4.893266 2.181161 5.890155 4.0953864.768778 1.4768919 1.027842 3.4840912 1.648247 5.0607599 1.627388 4.1352323 3.776603 7.991543 5.925818 11.8864038 1.73135 3.1387596 3.625202 5.8806794 3.817649 9.467463.066953 1.2485065-1.121037 8.7376023 1.772733 6.4599035.428968-.3375567 1.353857-4.1559652 1.543949-4.8038668.771133-2.6327484 1.045337-5.3811473 1.394567-8.0861367.694424-5.3795275.922534-10.4979506.469006-15.9160282" fill="#fff" fill-rule="evenodd"/></mask><g fill="none" fill-rule="evenodd"><circle cx="251" cy="224" fill="#e6e6e6" fill-rule="nonzero" r="120"/><g fill="#65c9ff" fill-rule="nonzero" mask="url(#a)" transform="translate(131 104)"><path d="m0 0h240v240h-240z"/></g><g mask="url(#b)" transform="translate(119 64)"><g transform="translate(32 36)"><path d="m124 144.610951v18.389049h4c39.764502 0 72 32.235498 72 72v9h-200v-9c0-39.764502 32.235498-72 72-72h4v-18.389049c-17.2373655-8.188579-29.6277754-24.92394-31.6948612-44.7297125-5.8248283-.8234519-10.3051388-5.8291289-10.3051388-11.8812385v-14c0-5.9459926 4.3245733-10.8819269 10-11.8340831v-6.1659169c0-30.927946 25.072054-56 56-56s56 25.072054 56 56v6.1659169c5.675427.9521562 10 5.8880905 10 11.8340831v14c0 6.0521096-4.48031 11.0577866-10.305139 11.8812385-2.067086 19.8057725-14.457496 36.5411335-31.694861 44.7297125z" fill="#d0c6ac" fill-rule="nonzero"/><g mask="url(#c)"><path d="m0 0h264v244h-264z" fill="#ffdbb4" fill-rule="nonzero" transform="translate(-32)"/></g><path d="m156 79v23c0 30.927946-25.072054 56-56 56s-56-25.072054-56-56v-23 15c0 30.927946 25.072054 56 56 56s56-25.072054 56-56z" fill="#000" fill-opacity=".1" fill-rule="nonzero" mask="url(#d)"/></g><g transform="translate(32 183)"><path d="m76 .0708856c-17.9186994 2.0050524-31.7201576 7.4809485-31.995797 21.574082-25.8577701 10.9231257-44.004203 36.5196581-44.004203 66.3545174v9.000515h200v-9.000515c0-29.8348593-18.146433-55.4313917-44.004203-66.3545018-.275639-14.0931491-14.077098-19.5690452-31.995797-21.5740976v18.9291144c0 13.254834-10.745166 24-24 24s-24-10.745166-24-24z" fill="#b7c1db"/><g fill="#b1e2ff" mask="url(#e)"><path d="m0 0h264v110h-264z" transform="translate(-32 -13)"/></g><path d="m70 48.7390531v48.2609469h-7v-51.8497375c2.2037542 1.3097951 4.5467694 2.5105253 7 3.5887906zm67-3.5887906v40.3497375c0 1.932997-1.567003 3.5-3.5 3.5s-3.5-1.567003-3.5-3.5v-36.7609469c2.453231-1.0782653 4.796246-2.2789955 7-3.5887906z" fill="#f4f4f4" mask="url(#f)"/><path d="m58.9601329-.2756463c-15.0508234 2.8468245-25.4601329 8.518531-25.4601329 19.5833386 0 19.7123172 33.0376807 35.6923077 66.5 35.6923077 33.462319 0 66.5-15.9799905 66.5-35.6923077 0-11.0648076-10.40931-16.7365141-25.460133-19.5833386 9.085054 3.3501061 14.960133 8.9817009 14.960133 18.3525694 0 20.3920523-27.821205 36.9230769-56 36.9230769s-56-16.5310246-56-36.9230769c0-9.3708685 5.8750795-15.0024633 14.9601329-18.3525694z" fill="#000" fill-opacity=".16" mask="url(#g)"/></g><g transform="translate(88 88)"><g transform="translate(25 59)"><path d="m.117844 2.1280772c1.0578681 9.4917253 9.1081433 16.8719228 18.882156 16.8719228 9.8042055 0 17.8740075-7.425864 18.8917593-16.9599454.0819092-.7673086-.7750164-2.0400546-1.8489923-2.0400546-14.8940134 0-26.3048457 0-33.9559426 0-1.0802076 0-2.0748186 1.1784435-1.9689804 2.1280772z" fill="#000" fill-opacity=".7"/><rect fill="#fff" height="16" mask="url(#h)" rx="5" width="31" x="4" y="-11"/><g mask="url(#i)"><g fill="#ff4f6d" transform="translate(3 11)"><circle cx="11" cy="11" r="11"/><circle cx="21" cy="11" r="11"/></g></g></g><g fill="#000" fill-rule="nonzero"><path d="m0 0c0 4.418278 5.372583 8 12 8s12-3.581722 12-8" fill-opacity=".16" transform="translate(32 42)"/><g fill-opacity=".6"><g transform="translate(12 18)"><circle cx="6" cy="6" r="6"/><circle cx="58" cy="6" r="6"/></g><g><path d="m3.63024536 11.1585767c3.91490965-5.50870997 14.64767434-8.59773949 23.89278144-6.32739624 1.072698.26342504 2.1558397-.39262033 2.4192648-1.46531834.263425-1.07269802-.3926204-2.15583976-1.4653184-2.4192648-10.7366099-2.63661521-23.16487358.940401-28.10721856 7.89482594-.63986427.90035965-.42869103 2.14895784.47166862 2.78882214.90035965.6398642 2.14895784.428691 2.7888221-.4716687z"/><path d="m61.6302461 11.1585767c3.9149096-5.50870997 14.6476743-8.59773949 23.8927814-6.32739624 1.072698.26342504 2.1558397-.39262033 2.4192648-1.46531834.263425-1.07269802-.3926204-2.15583976-1.4653184-2.4192648-10.7366099-2.63661521-23.1648736.940401-28.1072186 7.89482594-.6398642.90035965-.428691 2.14895784.4716687 2.78882214.9003596.6398642 2.1489578.428691 2.7888221-.4716687z" transform="matrix(-1 0 0 1 146.000308 0)"/></g></g></g></g><g mask="url(#j)"><g transform="translate(72 9)"><path d="m21.2519269 43.0221149c.1230084-.0544-.1822557-.0753-.9157924-.0626.8915292-.0018 1.1967934.019.9157924.0626m-8.1349494-15.7205225c-.0021353-.0196.0167773.1511 0 0m107.6480785 34.4640741c-.26411-3.3169325-.732106-6.6137801-1.51838-9.8545842-.624443-2.5757331-1.477669-5.033548-2.48667-7.491039-.609303-1.4846667-2.032468-3.5239371-2.199682-5.12555-.164858-1.5776406 1.066197-3.3253553 1.328961-5.1621565.255026-1.7875607.211624-3.6671234-.155102-5.4384865-.833039-4.0228215-3.593912-7.7638056-7.857016-8.8124345-.951805-.2342164-2.96375.0544238-3.636305-.4998561-.771133-.6355915-1.308101-2.8008789-2.006225-3.669391-1.990413-2.4759562-5.094797-4.0704422-8.36875-3.5145426-2.41097.4091499-1.026496.9077102-2.833882-.5111944-1.004964-.7888203-1.75591-1.9932695-2.731939-2.8472038-1.46724-1.2828453-3.150478-2.3810386-4.89192-3.2822699-4.556821-2.358038-9.753897-4.0720619-14.843984-4.90753107-9.285228-1.52418866-19.195236-.19534235-28.195494 2.21938717-4.478429 1.2015336-8.987137 2.7263701-13.146615 4.7429641-1.7834988.8646247-2.8130226 1.5818519-4.6725579 1.8082935-2.9287596.3566699-5.4090372.3388526-8.1833683 1.58088-8.5362999 3.8219719-12.3812012 12.6888301-9.0594729 21.1740742.6681811 1.7065729 1.5728835 3.2051695 2.8200877 4.5835803 1.5207345 1.6806569 2.0708232 1.3499031.7610401 3.2825937-1.9587868 2.8899654-3.6100622 5.9717096-4.9544991 9.1716959-3.5289788 8.4016648-4.119441 17.8642685-3.8896486 26.8244245.0804105 3.1368159.2149888 6.3121819.709564 9.4188704.213643 1.3447199.2735303 3.8731561 1.2821945 4.8709247.5117339.5060111 1.2408117.7881726 1.9682072.5866749 1.7094805-.4736161 1.1217099-1.7350806 1.1614105-2.9061629.1998488-5.883595-.0699807-11.0885129 1.3292969-16.9011627 1.0335612-4.2946161 2.7561631-8.1949841 4.9884802-12.0350972 2.8385922-4.8842067 5.9029395-9.1736396 9.8067188-13.3558449.9178238-.9835147 1.1183454-1.4004394 2.3490637-1.4717086.9319546-.0537758 2.2952325.5844073 3.2012807.8053418 1.9978145.4868981 3.9993295.968289 6.0334805 1.2961273 3.73993.6028725 7.443188.6433663 11.216763.5251243 7.426365-.2322728 14.884693-.7531857 22.084967-2.6233539 4.781903-1.2417035 9.021455-3.4708092 13.601826-5.1048171.081757-.0291556 1.229709-.8471315 1.430904-.8137645.280932.0463249 1.976955 1.8257869 2.26327 2.0499608 2.225588 1.7454471 4.666838 2.4782239 7.070406 3.8297467 2.963414 1.6664031.093532-.718199 1.727985 1.3586498.476407.6048162.72033 1.726334 1.102532 2.41149 1.215915 2.1827807 2.907564 4.1012175 4.930948 5.6234624 1.955086 1.4707368 4.893266 2.181161 5.890155 4.0953864.768778 1.4768919 1.027842 3.4840912 1.648247 5.0607599 1.627388 4.1352323 3.776603 7.991543 5.925818 11.8864038 1.73135 3.1387596 3.625202 5.8806794 3.817649 9.467463.066953 1.2485065-1.121037 8.7376023 1.772733 6.4599035.428968-.3375567 1.353857-4.1559652 1.543949-4.8038668.771133-2.6327484 1.045337-5.3811473 1.394567-8.0861367.694424-5.3795275.922534-10.4979506.469006-15.9160282" fill="#28354b"/><g mask="url(#k)"><path d="m0 0h264v280h-264z" fill="#4a312c" fill-rule="nonzero" transform="translate(-73 -9)"/></g></g></g></g><g fill-rule="nonzero"><path d="m88 80 10 20h-20z" fill="#f8e71c" transform="matrix(.93358043 .35836795 -.35836795 .93358043 38.098038 -25.558618)"/><path d="m129 351 10 20h-20z" fill="#9013fe"/><circle cx="361" cy="74" fill="#b8e986" r="10"/><circle cx="341" cy="381" fill="#50e3c2" r="10"/><circle cx="65" cy="194" fill="#f5a623" r="10"/><path d="m406 336 11 22h-22z" fill="#4a90e2" transform="matrix(.92718385 -.37460659 .37460659 .92718385 -100.425133 177.357479)"/><path d="m408 126 11 22h-22z" fill="#bd10e0" transform="matrix(.7193398 .69465837 -.69465837 .7193398 209.677558 -244.970168)"/><path d="m161 57-5.877853 3.0901699 1.12257-6.5450849-4.755282-4.6352549 6.571639-.9549151 2.938926-5.954915 2.938926 5.954915 6.571639.9549151-4.755282 4.6352549 1.12257 6.5450849z" fill="#da6977"/><path d="m444 227-5.877853 3.09017 1.12257-6.545085-4.755282-4.635255 6.571639-.954915 2.938926-5.954915 2.938926 5.954915 6.571639.954915-4.755282 4.635255 1.12257 6.545085z" fill="#f5a623"/></g></g></svg>