<?xml version="1.0" encoding="UTF-8"?>
<svg width="510px" height="440px" viewBox="0 0 510 440" version="1.1" xmlns="http://www.w3.org/2000/svg" xmlns:xlink="http://www.w3.org/1999/xlink">
    <!-- Generator: Sketch 51.3 (57544) - http://www.bohemiancoding.com/sketch -->
    <title>Artboard Copy</title>
    <desc>Created with Sketch.</desc>
    <defs>
        <circle id="path-1" cx="120" cy="120" r="120"></circle>
        <path d="M12,160 C12,226.27417 65.72583,280 132,280 C198.27417,280 252,226.27417 252,160 L264,160 L264,-1.42108547e-14 L-3.19744231e-14,-1.42108547e-14 L-3.19744231e-14,160 L12,160 Z" id="path-3"></path>
        <path d="M124,144.610951 L124,163 L128,163 C167.764502,163 200,195.235498 200,235 L200,244 L0,244 L0,235 C-4.86974701e-15,195.235498 32.235498,163 72,163 L76,163 L76,144.610951 C58.7626345,136.422372 46.3722246,119.687011 44.3051388,99.8812385 C38.4803105,99.0577866 34,94.0521096 34,88 L34,74 C34,68.0540074 38.3245733,63.1180731 44,62.1659169 L44,56 C44,25.072054 69.072054,5.68137151e-15 100,0 C130.927946,-5.68137151e-15 156,25.072054 156,56 L156,62.1659169 C161.675427,63.1180731 166,68.0540074 166,74 L166,88 C166,94.0521096 161.51969,99.0577866 155.694861,99.8812385 C153.627775,119.687011 141.237365,136.422372 124,144.610951 Z" id="path-5"></path>
        <path d="M124,144.610951 L124,163 L128,163 C167.764502,163 200,195.235498 200,235 L200,244 L0,244 L0,235 C-4.86974701e-15,195.235498 32.235498,163 72,163 L76,163 L76,144.610951 C58.7626345,136.422372 46.3722246,119.687011 44.3051388,99.8812385 C38.4803105,99.0577866 34,94.0521096 34,88 L34,74 C34,68.0540074 38.3245733,63.1180731 44,62.1659169 L44,56 C44,25.072054 69.072054,5.68137151e-15 100,0 C130.927946,-5.68137151e-15 156,25.072054 156,56 L156,62.1659169 C161.675427,63.1180731 166,68.0540074 166,74 L166,88 C166,94.0521096 161.51969,99.0577866 155.694861,99.8812385 C153.627775,119.687011 141.237365,136.422372 124,144.610951 Z" id="path-7"></path>
        <path d="M76,0.0708856 C58.0813006,2.075938 44.2798424,7.5518341 44.004203,21.6449676 C18.1464329,32.5680933 0,58.1646257 0,87.999485 L0,97 L200,97 L200,87.999485 C200,58.1646257 181.853567,32.5680933 155.995797,21.6449832 C155.720158,7.5518341 141.918699,2.075938 124,0.0708856 L124,19 C124,32.254834 113.254834,43 100,43 C86.745166,43 76,32.254834 76,19 L76,0.0708856 Z" id="path-9"></path>
        <path d="M76,0.0708856 C58.0813006,2.075938 44.2798424,7.5518341 44.004203,21.6449676 C18.1464329,32.5680933 0,58.1646257 0,87.999485 L0,97 L200,97 L200,87.999485 C200,58.1646257 181.853567,32.5680933 155.995797,21.6449832 C155.720158,7.5518341 141.918699,2.075938 124,0.0708856 L124,19 C124,32.254834 113.254834,43 100,43 C86.745166,43 76,32.254834 76,19 L76,0.0708856 Z" id="path-11"></path>
        <path d="M76,0.0708856 C58.0813006,2.075938 44.2798424,7.5518341 44.004203,21.6449676 C18.1464329,32.5680933 0,58.1646257 0,87.999485 L0,97 L200,97 L200,87.999485 C200,58.1646257 181.853567,32.5680933 155.995797,21.6449832 C155.720158,7.5518341 141.918699,2.075938 124,0.0708856 L124,19 C124,32.254834 113.254834,43 100,43 C86.745166,43 76,32.254834 76,19 L76,0.0708856 Z" id="path-13"></path>
        <path d="M0.117844,2.1280772 C1.1757121,11.6198025 9.2259873,19 19,19 C28.8042055,19 36.8740075,11.574136 37.8917593,2.0400546 C37.9736685,1.272746 37.1167429,0 36.042767,0 C21.1487536,0 9.7379213,0 2.0868244,0 C1.0066168,0 0.0120058,1.1784435 0.117844,2.1280772 Z" id="path-15"></path>
        <path d="M0.117844,2.1280772 C1.1757121,11.6198025 9.2259873,19 19,19 C28.8042055,19 36.8740075,11.574136 37.8917593,2.0400546 C37.9736685,1.272746 37.1167429,0 36.042767,0 C21.1487536,0 9.7379213,0 2.0868244,0 C1.0066168,0 0.0120058,1.1784435 0.117844,2.1280772 Z" id="path-17"></path>
        <rect id="path-19" x="0" y="0" width="264" height="280"></rect>
        <path d="M21.2519269,43.0221149 C21.3749353,42.9677149 21.0696712,42.9468149 20.3361345,42.9595149 C21.2276637,42.9577149 21.5329279,42.9785149 21.2519269,43.0221149 M13.1169775,27.3015924 C13.1148422,27.2819924 13.1337548,27.4526924 13.1169775,27.3015924 M120.765056,61.7656665 C120.500946,58.448734 120.03295,55.1518864 119.246676,51.9110823 C118.622233,49.3353492 117.769007,46.8775343 116.760006,44.4200433 C116.150703,42.9353766 114.727538,40.8961062 114.560324,39.2944933 C114.395466,37.7168527 115.626521,35.969138 115.889285,34.1323368 C116.144311,32.3447761 116.100909,30.4652134 115.734183,28.6938503 C114.901144,24.6710288 112.140271,20.9300447 107.877167,19.8814158 C106.925362,19.6471994 104.913417,19.9358396 104.240862,19.3815597 C103.469729,18.7459682 102.932761,16.5806808 102.234637,15.7121687 C100.244224,13.2362125 97.13984,11.6417265 93.865887,12.1976261 C91.454917,12.606776 92.839391,13.1053363 91.032005,11.6864317 C90.027041,10.8976114 89.276095,9.6931622 88.300066,8.8392279 C86.832826,7.5563826 85.149588,6.4581893 83.408146,5.556958 C78.851325,3.19892 73.654249,1.4848961 68.564162,0.64942693 C59.278934,-0.87476173 49.368926,0.45408458 40.368668,2.8688141 C35.890239,4.0703477 31.381531,5.5951842 27.222053,7.6117782 C25.4385542,8.4764029 24.4090304,9.1936301 22.5494951,9.4200717 C19.6207355,9.7767416 17.1404579,9.7589243 14.3661268,11.0009517 C5.8298269,14.8229236 1.9849256,23.6897818 5.3066539,32.1750259 C5.974835,33.8815988 6.8795374,35.3801954 8.1267416,36.7586062 C9.6474761,38.4392631 10.1975648,38.1085093 8.8877817,40.0411999 C6.9289949,42.9311653 5.2777195,46.0129095 3.9332826,49.2128958 C0.4043038,57.6145606 -0.1861584,67.0771643 0.043634,76.0373203 C0.1240445,79.1741362 0.2586228,82.3495022 0.753198,85.4561907 C0.966841,86.8009106 1.0267283,89.3293468 2.0353925,90.3271154 C2.5471264,90.8331265 3.2762042,91.115288 4.0035997,90.9137903 C5.7130802,90.4401742 5.1253096,89.1787097 5.1650102,88.0076274 C5.364859,82.1240324 5.0950295,76.9191145 6.4943071,71.1064647 C7.5278683,66.8118486 9.2504702,62.9114806 11.4827873,59.0713675 C14.3213795,54.1871608 17.3857268,49.8977279 21.2895061,45.7155226 C22.2073299,44.7320079 22.4078515,44.3150832 23.6385698,44.243814 C24.5705244,44.1900382 25.9338023,44.8282213 26.8398505,45.0491558 C28.837665,45.5360539 30.83918,46.0174448 32.873331,46.3452831 C36.613261,46.9481556 40.316519,46.9886494 44.090094,46.8704074 C51.516459,46.6381346 58.974787,46.1172217 66.175061,44.2470535 C70.956964,43.00535 75.196516,40.7762443 79.776887,39.1422364 C79.858644,39.1130808 81.006596,38.2951049 81.207791,38.3284719 C81.488723,38.3747968 83.184746,40.1542588 83.471061,40.3784327 C85.696649,42.1238798 88.137899,42.8566566 90.541467,44.2081794 C93.504881,45.8745825 90.634999,43.4899804 92.269452,45.5668292 C92.745859,46.1716454 92.989782,47.2931632 93.371984,47.9783192 C94.587899,50.1610999 96.279548,52.0795367 98.302932,53.6017816 C100.258018,55.0725184 103.196198,55.7829426 104.193087,57.697168 C104.961865,59.1740599 105.220929,61.1812592 105.841334,62.7579279 C107.468722,66.8931602 109.617937,70.7494709 111.767152,74.6443317 C113.498502,77.7830913 115.392354,80.5250111 115.584801,84.1117947 C115.651754,85.3603012 114.463764,92.849397 117.357534,90.5716982 C117.786502,90.2341415 118.711391,86.415733 118.901483,85.7678314 C119.672616,83.135083 119.94682,80.3866841 120.29605,77.6816947 C120.990474,72.3021672 121.218584,67.1837441 120.765056,61.7656665" id="path-21"></path>
        <circle id="path-23" cx="120" cy="120" r="120"></circle>
        <path d="M12,160 C12,226.27417 65.72583,280 132,280 C198.27417,280 252,226.27417 252,160 L264,160 L264,-1.42108547e-14 L-3.19744231e-14,-1.42108547e-14 L-3.19744231e-14,160 L12,160 Z" id="path-25"></path>
        <path d="M124,144.610951 L124,163 L128,163 C167.764502,163 200,195.235498 200,235 L200,244 L0,244 L0,235 C-4.86974701e-15,195.235498 32.235498,163 72,163 L76,163 L76,144.610951 C58.7626345,136.422372 46.3722246,119.687011 44.3051388,99.8812385 C38.4803105,99.0577866 34,94.0521096 34,88 L34,74 C34,68.0540074 38.3245733,63.1180731 44,62.1659169 L44,56 C44,25.072054 69.072054,5.68137151e-15 100,0 C130.927946,-5.68137151e-15 156,25.072054 156,56 L156,62.1659169 C161.675427,63.1180731 166,68.0540074 166,74 L166,88 C166,94.0521096 161.51969,99.0577866 155.694861,99.8812385 C153.627775,119.687011 141.237365,136.422372 124,144.610951 Z" id="path-27"></path>
        <path d="M124,144.610951 L124,163 L128,163 C167.764502,163 200,195.235498 200,235 L200,244 L0,244 L0,235 C-4.86974701e-15,195.235498 32.235498,163 72,163 L76,163 L76,144.610951 C58.7626345,136.422372 46.3722246,119.687011 44.3051388,99.8812385 C38.4803105,99.0577866 34,94.0521096 34,88 L34,74 C34,68.0540074 38.3245733,63.1180731 44,62.1659169 L44,56 C44,25.072054 69.072054,5.68137151e-15 100,0 C130.927946,-5.68137151e-15 156,25.072054 156,56 L156,62.1659169 C161.675427,63.1180731 166,68.0540074 166,74 L166,88 C166,94.0521096 161.51969,99.0577866 155.694861,99.8812385 C153.627775,119.687011 141.237365,136.422372 124,144.610951 Z" id="path-29"></path>
        <path d="M73.192402,0.0517235 L72,0.0517235 C32.235498,0.0517235 0,32.2872215 0,72.051724 L0,81 L200,81 L200,72.051724 C200,32.2872215 167.764502,0.0517235 128,0.0517235 L126.807598,0.0517235 C126.934638,1.0353144 127,2.0364513 127,3.0517235 C127,16.8588423 114.911688,28.0517235 100,28.0517235 C85.088312,28.0517235 73,16.8588423 73,3.0517235 C73,2.0364513 73.065362,1.0353144 73.192402,0.0517235 Z" id="path-31"></path>
        <rect id="path-33" x="0" y="0" width="264" height="280"></rect>
        <path d="M48.7246602,89.2187346 C44.7420117,91.1711421 42,95.2653555 42,100 L42,113 C42,119.018625 46.4308707,124.002364 52.2085808,124.867187 C53.9518066,145.114792 66.4692178,162.282984 84,170.610951 L84,189 L80,189 C78.4137385,189 76.8394581,189.051297 75.2787271,189.152323 C70.3620966,186.639548 65.7724391,183.578174 61.590479,180.048925 C57.2814481,181.318646 52.7202934,182 48,182 C21.490332,182 0,160.509668 0,134 C0,119.590902 6.34904132,106.664702 16.4021743,97.866349 C11.1175746,90.6060809 8,81.6671147 8,72 C8,50.160623 23.9112243,32.0375116 44.7738169,28.5905219 C51.0188047,11.8901624 67.1208542,0 86,0 C94.0143172,0 101.528186,2.14267429 108,5.88641659 C114.471814,2.14267429 121.985683,0 130,0 C148.879146,0 164.981195,11.8901624 171.226183,28.5905219 C192.088776,32.0375116 208,50.160623 208,72 C208,81.6671147 204.882425,90.6060809 199.597826,97.866349 C209.650959,106.664702 216,119.590902 216,134 C216,160.509668 194.509668,182 168,182 C163.279707,182 158.718552,181.318646 154.409521,180.048925 C150.227561,183.578174 145.637903,186.639548 140.721273,189.152323 C139.160542,189.051297 137.586262,189 136,189 L132,189 L132,170.610951 C149.530782,162.282984 162.048193,145.114792 163.791419,124.867187 C169.569129,124.002364 174,119.018625 174,113 L174,100 C174,95.778427 171.820067,92.0660046 168.524466,89.9269981 C167.450514,89.5343912 166.370126,89.0424011 165.289302,88.4564081 C164.868503,88.3367332 164.43828,88.2394463 164,88.1659169 L164,87.7130302 C155.319369,82.4100235 146.764694,71.1747746 141.449951,56.7992877 C131.312295,58.8351061 119.547256,60 107,60 C95.038684,60 83.7882341,58.9413637 73.9808476,57.0787685 C68.7546917,71.0641476 60.4637821,82.0431875 52,87.4230168 L52,88.1659169 C50.9777341,88.3374206 49.9992949,88.6381729 49.0820602,89.050796 C48.9628927,89.1079465 48.8437566,89.1639284 48.7246602,89.2187346 Z" id="path-35"></path>
    </defs>
    <g id="Artboard-Copy" stroke="none" stroke-width="1" fill="none" fill-rule="evenodd">
        <g id="avatar" transform="translate(36.000000, 82.000000)">
            <g id="Circle" transform="translate(12.000000, 40.000000)">
                <g id="Circle-Background" fill="#E6E6E6" fill-rule="nonzero">
                    <circle id="path-1" cx="120" cy="120" r="120"></circle>
                </g>
                <g id="Color/Palette/Blue-01-Clipped">
                    <mask id="mask-2" fill="white">
                        <use xlink:href="#path-1"></use>
                    </mask>
                    <g id="path-1"></g>
                    <g id="Color/Palette/Blue-01" mask="url(#mask-2)" fill="#65C9FF" fill-rule="nonzero">
                        <rect id="ðŸ–Color" x="0" y="0" width="240" height="240"></rect>
                    </g>
                </g>
            </g>
            <g id="Avataaar-Clipped">
                <mask id="mask-4" fill="white">
                    <use xlink:href="#path-3"></use>
                </mask>
                <g id="path-3"></g>
                <g id="Avataaar" mask="url(#mask-4)">
                    <g id="Body" transform="translate(32.000000, 36.000000)">
                        <g id="path-5-link" fill="#D0C6AC" fill-rule="nonzero">
                            <path d="M124,144.610951 L124,163 L128,163 C167.764502,163 200,195.235498 200,235 L200,244 L0,244 L0,235 C-4.86974701e-15,195.235498 32.235498,163 72,163 L76,163 L76,144.610951 C58.7626345,136.422372 46.3722246,119.687011 44.3051388,99.8812385 C38.4803105,99.0577866 34,94.0521096 34,88 L34,74 C34,68.0540074 38.3245733,63.1180731 44,62.1659169 L44,56 C44,25.072054 69.072054,5.68137151e-15 100,0 C130.927946,-5.68137151e-15 156,25.072054 156,56 L156,62.1659169 C161.675427,63.1180731 166,68.0540074 166,74 L166,88 C166,94.0521096 161.51969,99.0577866 155.694861,99.8812385 C153.627775,119.687011 141.237365,136.422372 124,144.610951 Z" id="path-5"></path>
                        </g>
                        <g id="Skin/ðŸ‘¶ðŸ½-03-Brown-Clipped">
                            <mask id="mask-6" fill="white">
                                <use xlink:href="#path-5"></use>
                            </mask>
                            <g id="path-5"></g>
                            <g id="Skin/ðŸ‘¶ðŸ½-03-Brown" mask="url(#mask-6)">
                                <g transform="translate(-32.000000, 0.000000)" id="Color">
                                    <g>
                                        <rect id="Rectangle-path" fill="#FFDBB4" fill-rule="nonzero" x="0" y="0" width="264" height="244"></rect>
                                    </g>
                                </g>
                            </g>
                        </g>
                        <g id="Neck-Shadow-Clipped">
                            <mask id="mask-8" fill="white">
                                <use xlink:href="#path-7"></use>
                            </mask>
                            <g id="path-5"></g>
                            <path d="M156,79 L156,102 C156,132.927946 130.927946,158 100,158 C69.072054,158 44,132.927946 44,102 L44,79 L44,94 C44,124.927946 69.072054,150 100,150 C130.927946,150 156,124.927946 156,94 L156,79 Z" id="Neck-Shadow" fill-opacity="0.100000001" fill="#000000" fill-rule="nonzero" mask="url(#mask-8)"></path>
                        </g>
                    </g>
                    <g id="Clothing/Hoodie" transform="translate(32.000000, 183.000000)">
                        <g id="Hoodie" fill="#B7C1DB">
                            <path d="M76,0.0708856 C58.0813006,2.075938 44.2798424,7.5518341 44.004203,21.6449676 C18.1464329,32.5680933 0,58.1646257 0,87.999485 L0,97 L200,97 L200,87.999485 C200,58.1646257 181.853567,32.5680933 155.995797,21.6449832 C155.720158,7.5518341 141.918699,2.075938 124,0.0708856 L124,19 C124,32.254834 113.254834,43 100,43 C86.745166,43 76,32.254834 76,19 L76,0.0708856 Z" id="react-path-32"></path>
                        </g>
                        <g id="Color/Palette/Gray-01-Clipped">
                            <mask id="mask-10" fill="white">
                                <use xlink:href="#path-9"></use>
                            </mask>
                            <g id="react-path-32"></g>
                            <g id="Color/Palette/Gray-01" mask="url(#mask-10)" fill="#B1E2FF">
                                <g transform="translate(-32.000000, -13.000000)" id="ðŸ–Color">
                                    <rect x="0" y="0" width="264" height="110"></rect>
                                </g>
                            </g>
                        </g>
                        <g id="Straps-Clipped">
                            <mask id="mask-12" fill="white">
                                <use xlink:href="#path-11"></use>
                            </mask>
                            <g id="react-path-32"></g>
                            <path d="M70,48.7390531 L70,97 L63,97 L63,45.1502625 C65.2037542,46.4600576 67.5467694,47.6607878 70,48.7390531 Z M137,45.1502625 L137,85.5 C137,87.432997 135.432997,89 133.5,89 C131.567003,89 130,87.432997 130,85.5 L130,48.7390531 C132.453231,47.6607878 134.796246,46.4600576 137,45.1502625 Z" id="Straps" fill="#F4F4F4" mask="url(#mask-12)"></path>
                        </g>
                        <g id="Shadow-Clipped">
                            <mask id="mask-14" fill="white">
                                <use xlink:href="#path-13"></use>
                            </mask>
                            <g id="react-path-32"></g>
                            <path d="M58.9601329,-0.2756463 C43.9093095,2.5711782 33.5,8.2428847 33.5,19.3076923 C33.5,39.0200095 66.5376807,55 100,55 C133.462319,55 166.5,39.0200095 166.5,19.3076923 C166.5,8.2428847 156.09069,2.5711782 141.039867,-0.2756463 C150.124921,3.0744598 156,8.7060546 156,18.0769231 C156,38.4689754 128.178795,55 100,55 C71.821205,55 44,38.4689754 44,18.0769231 C44,8.7060546 49.8750795,3.0744598 58.9601329,-0.2756463 Z" id="Shadow" fill-opacity="0.16" fill="#000000" mask="url(#mask-14)"></path>
                        </g>
                    </g>
                    <g id="Face" transform="translate(88.000000, 88.000000)">
                        <g id="Mouth/Smile" transform="translate(25.000000, 59.000000)">
                            <g id="Mouth" fill="#000000" fill-opacity="0.699999988">
                                <path d="M0.117844,2.1280772 C1.1757121,11.6198025 9.2259873,19 19,19 C28.8042055,19 36.8740075,11.574136 37.8917593,2.0400546 C37.9736685,1.272746 37.1167429,0 36.042767,0 C21.1487536,0 9.7379213,0 2.0868244,0 C1.0066168,0 0.0120058,1.1784435 0.117844,2.1280772 Z" id="react-path-36"></path>
                            </g>
                            <g id="Teeth-Clipped">
                                <mask id="mask-16" fill="white">
                                    <use xlink:href="#path-15"></use>
                                </mask>
                                <g id="react-path-36"></g>
                                <rect id="Teeth" fill="#FFFFFF" mask="url(#mask-16)" x="4" y="-11" width="31" height="16" rx="5"></rect>
                            </g>
                            <g id="Tongue-Clipped">
                                <mask id="mask-18" fill="white">
                                    <use xlink:href="#path-17"></use>
                                </mask>
                                <g id="react-path-36"></g>
                                <g id="Tongue" mask="url(#mask-18)">
                                    <g transform="translate(3.000000, 11.000000)" id="Group">
                                        <g>
                                            <circle id="Oval" fill="#FF4F6D" cx="11" cy="11" r="11"></circle>
                                            <circle id="Oval" fill="#FF4F6D" cx="21" cy="11" r="11"></circle>
                                        </g>
                                    </g>
                                </g>
                            </g>
                        </g>
                        <g id="Nose/Default" transform="translate(32.000000, 42.000000)" fill="#000000" fill-opacity="0.16" fill-rule="nonzero">
                            <path d="M0,0 C0,4.418278 5.372583,8 12,8 C18.627417,8 24,4.418278 24,0" id="Nose"></path>
                        </g>
                        <g id="Eyes/Default-ðŸ˜€" transform="translate(12.000000, 18.000000)" fill="#000000" fill-opacity="0.599999964" fill-rule="nonzero">
                            <circle id="Eye" cx="6" cy="6" r="6"></circle>
                            <circle id="Eye" cx="58" cy="6" r="6"></circle>
                        </g>
                        <g id="Eyebrow/Outline/Default" fill="#000000" fill-opacity="0.599999964" fill-rule="nonzero">
                            <g id="I-Browse">
                                <path d="M3.63024536,11.1585767 C7.54515501,5.64986673 18.2779197,2.56083721 27.5230268,4.83118046 C28.5957248,5.0946055 29.6788665,4.43856013 29.9422916,3.36586212 C30.2057166,2.2931641 29.5496712,1.21002236 28.4769732,0.94659732 C17.7403633,-1.69001789 5.31209962,1.88699832 0.369754639,8.84142326 C-0.270109626,9.74178291 -0.0589363917,10.9903811 0.84142326,11.6302454 C1.74178291,12.2701096 2.9903811,12.0589364 3.63024536,11.1585767 Z" id="Eyebrow"></path>
                                <path d="M61.6302461,11.1585767 C65.5451557,5.64986673 76.2779204,2.56083721 85.5230275,4.83118046 C86.5957255,5.0946055 87.6788672,4.43856013 87.9422923,3.36586212 C88.2057173,2.2931641 87.5496719,1.21002236 86.4769739,0.94659732 C75.740364,-1.69001789 63.3121003,1.88699832 58.3697553,8.84142326 C57.7298911,9.74178291 57.9410643,10.9903811 58.841424,11.6302454 C59.7417836,12.2701096 60.9903818,12.0589364 61.6302461,11.1585767 Z" id="Eyebrow" transform="translate(73.000154, 6.039198) scale(-1, 1) translate(-73.000154, -6.039198) "></path>
                            </g>
                        </g>
                    </g>
                    <g id="Top">
                        <g id="Top/Short-Hair/Short-Curly-Clipped">
                            <mask id="mask-20" fill="white">
                                <use xlink:href="#path-19"></use>
                            </mask>
                            <g id="react-path-62"></g>
                            <g id="Top/Short-Hair/Short-Curly" mask="url(#mask-20)">
                                <g transform="translate(72.000000, 9.000000)" id="Group">
                                    <g>
                                        <g id="Short-Hair" fill="#28354B">
                                            <path d="M21.2519269,43.0221149 C21.3749353,42.9677149 21.0696712,42.9468149 20.3361345,42.9595149 C21.2276637,42.9577149 21.5329279,42.9785149 21.2519269,43.0221149 M13.1169775,27.3015924 C13.1148422,27.2819924 13.1337548,27.4526924 13.1169775,27.3015924 M120.765056,61.7656665 C120.500946,58.448734 120.03295,55.1518864 119.246676,51.9110823 C118.622233,49.3353492 117.769007,46.8775343 116.760006,44.4200433 C116.150703,42.9353766 114.727538,40.8961062 114.560324,39.2944933 C114.395466,37.7168527 115.626521,35.969138 115.889285,34.1323368 C116.144311,32.3447761 116.100909,30.4652134 115.734183,28.6938503 C114.901144,24.6710288 112.140271,20.9300447 107.877167,19.8814158 C106.925362,19.6471994 104.913417,19.9358396 104.240862,19.3815597 C103.469729,18.7459682 102.932761,16.5806808 102.234637,15.7121687 C100.244224,13.2362125 97.13984,11.6417265 93.865887,12.1976261 C91.454917,12.606776 92.839391,13.1053363 91.032005,11.6864317 C90.027041,10.8976114 89.276095,9.6931622 88.300066,8.8392279 C86.832826,7.5563826 85.149588,6.4581893 83.408146,5.556958 C78.851325,3.19892 73.654249,1.4848961 68.564162,0.64942693 C59.278934,-0.87476173 49.368926,0.45408458 40.368668,2.8688141 C35.890239,4.0703477 31.381531,5.5951842 27.222053,7.6117782 C25.4385542,8.4764029 24.4090304,9.1936301 22.5494951,9.4200717 C19.6207355,9.7767416 17.1404579,9.7589243 14.3661268,11.0009517 C5.8298269,14.8229236 1.9849256,23.6897818 5.3066539,32.1750259 C5.974835,33.8815988 6.8795374,35.3801954 8.1267416,36.7586062 C9.6474761,38.4392631 10.1975648,38.1085093 8.8877817,40.0411999 C6.9289949,42.9311653 5.2777195,46.0129095 3.9332826,49.2128958 C0.4043038,57.6145606 -0.1861584,67.0771643 0.043634,76.0373203 C0.1240445,79.1741362 0.2586228,82.3495022 0.753198,85.4561907 C0.966841,86.8009106 1.0267283,89.3293468 2.0353925,90.3271154 C2.5471264,90.8331265 3.2762042,91.115288 4.0035997,90.9137903 C5.7130802,90.4401742 5.1253096,89.1787097 5.1650102,88.0076274 C5.364859,82.1240324 5.0950295,76.9191145 6.4943071,71.1064647 C7.5278683,66.8118486 9.2504702,62.9114806 11.4827873,59.0713675 C14.3213795,54.1871608 17.3857268,49.8977279 21.2895061,45.7155226 C22.2073299,44.7320079 22.4078515,44.3150832 23.6385698,44.243814 C24.5705244,44.1900382 25.9338023,44.8282213 26.8398505,45.0491558 C28.837665,45.5360539 30.83918,46.0174448 32.873331,46.3452831 C36.613261,46.9481556 40.316519,46.9886494 44.090094,46.8704074 C51.516459,46.6381346 58.974787,46.1172217 66.175061,44.2470535 C70.956964,43.00535 75.196516,40.7762443 79.776887,39.1422364 C79.858644,39.1130808 81.006596,38.2951049 81.207791,38.3284719 C81.488723,38.3747968 83.184746,40.1542588 83.471061,40.3784327 C85.696649,42.1238798 88.137899,42.8566566 90.541467,44.2081794 C93.504881,45.8745825 90.634999,43.4899804 92.269452,45.5668292 C92.745859,46.1716454 92.989782,47.2931632 93.371984,47.9783192 C94.587899,50.1610999 96.279548,52.0795367 98.302932,53.6017816 C100.258018,55.0725184 103.196198,55.7829426 104.193087,57.697168 C104.961865,59.1740599 105.220929,61.1812592 105.841334,62.7579279 C107.468722,66.8931602 109.617937,70.7494709 111.767152,74.6443317 C113.498502,77.7830913 115.392354,80.5250111 115.584801,84.1117947 C115.651754,85.3603012 114.463764,92.849397 117.357534,90.5716982 C117.786502,90.2341415 118.711391,86.415733 118.901483,85.7678314 C119.672616,83.135083 119.94682,80.3866841 120.29605,77.6816947 C120.990474,72.3021672 121.218584,67.1837441 120.765056,61.7656665" id="react-path-61"></path>
                                        </g>
                                        <g id="Skin/ðŸ‘¶ðŸ½-03-Brown-Clipped">
                                            <mask id="mask-22" fill="white">
                                                <use xlink:href="#path-21"></use>
                                            </mask>
                                            <g id="react-path-61"></g>
                                            <g id="Skin/ðŸ‘¶ðŸ½-03-Brown" mask="url(#mask-22)">
                                                <g transform="translate(-73.000000, -9.000000)" id="Color">
                                                    <g>
                                                        <rect id="Rectangle-path" fill="#4A312C" fill-rule="nonzero" x="0" y="0" width="264" height="280"></rect>
                                                    </g>
                                                </g>
                                            </g>
                                        </g>
                                    </g>
                                </g>
                            </g>
                        </g>
                    </g>
                </g>
            </g>
        </g>
        <g id="kayce-avatar" transform="translate(220.000000, 82.000000)">
            <g id="Circle" transform="translate(12.000000, 40.000000)">
                <g id="Circle-Background" fill="#E6E6E6" fill-rule="nonzero">
                    <circle id="path-1" cx="120" cy="120" r="120"></circle>
                </g>
                <g id="Color/Palette/Blue-01-Clipped">
                    <mask id="mask-24" fill="white">
                        <use xlink:href="#path-23"></use>
                    </mask>
                    <g id="path-1"></g>
                    <g id="Color/Palette/Blue-01" mask="url(#mask-24)" fill="#65C9FF" fill-rule="nonzero">
                        <rect id="ðŸ–Color" x="0" y="0" width="240" height="240"></rect>
                    </g>
                </g>
            </g>
            <g id="Avataaar-Clipped">
                <mask id="mask-26" fill="white">
                    <use xlink:href="#path-25"></use>
                </mask>
                <g id="path-3"></g>
                <g id="Avataaar" mask="url(#mask-26)">
                    <g id="Body" transform="translate(32.000000, 36.000000)">
                        <g id="path-5-link" fill="#D0C6AC" fill-rule="nonzero">
                            <path d="M124,144.610951 L124,163 L128,163 C167.764502,163 200,195.235498 200,235 L200,244 L0,244 L0,235 C-4.86974701e-15,195.235498 32.235498,163 72,163 L76,163 L76,144.610951 C58.7626345,136.422372 46.3722246,119.687011 44.3051388,99.8812385 C38.4803105,99.0577866 34,94.0521096 34,88 L34,74 C34,68.0540074 38.3245733,63.1180731 44,62.1659169 L44,56 C44,25.072054 69.072054,5.68137151e-15 100,0 C130.927946,-5.68137151e-15 156,25.072054 156,56 L156,62.1659169 C161.675427,63.1180731 166,68.0540074 166,74 L166,88 C166,94.0521096 161.51969,99.0577866 155.694861,99.8812385 C153.627775,119.687011 141.237365,136.422372 124,144.610951 Z" id="path-5"></path>
                        </g>
                        <g id="Skin/ðŸ‘¶ðŸ½-03-Brown-Clipped">
                            <mask id="mask-28" fill="white">
                                <use xlink:href="#path-27"></use>
                            </mask>
                            <g id="path-5"></g>
                            <g id="Skin/ðŸ‘¶ðŸ½-03-Brown" mask="url(#mask-28)">
                                <g transform="translate(-32.000000, 0.000000)" id="Color">
                                    <g>
                                        <rect id="Rectangle-path" fill="#E3A67B" fill-rule="nonzero" x="0" y="0" width="264" height="244"></rect>
                                    </g>
                                </g>
                            </g>
                        </g>
                        <g id="Neck-Shadow-Clipped">
                            <mask id="mask-30" fill="white">
                                <use xlink:href="#path-29"></use>
                            </mask>
                            <g id="path-5"></g>
                            <path d="M156,79 L156,102 C156,132.927946 130.927946,158 100,158 C69.072054,158 44,132.927946 44,102 L44,79 L44,94 C44,124.927946 69.072054,150 100,150 C130.927946,150 156,124.927946 156,94 L156,79 Z" id="Neck-Shadow" fill-opacity="0.100000001" fill="#000000" fill-rule="nonzero" mask="url(#mask-30)"></path>
                        </g>
                    </g>
                    <g id="Clothing/Collar-+-Sweater" transform="translate(32.000000, 191.000000)">
                        <g id="Clothes" transform="translate(0.000000, 8.000000)" fill="#E6E6E6">
                            <path d="M73.192402,0.0517235 L72,0.0517235 C32.235498,0.0517235 0,32.2872215 0,72.051724 L0,81 L200,81 L200,72.051724 C200,32.2872215 167.764502,0.0517235 128,0.0517235 L126.807598,0.0517235 C126.934638,1.0353144 127,2.0364513 127,3.0517235 C127,16.8588423 114.911688,28.0517235 100,28.0517235 C85.088312,28.0517235 73,16.8588423 73,3.0517235 C73,2.0364513 73.065362,1.0353144 73.192402,0.0517235 Z" id="react-path-41"></path>
                        </g>
                        <g id="Color/Palette/Gray-01-Clipped" transform="translate(0.000000, 8.000000)">
                            <mask id="mask-32" fill="white">
                                <use xlink:href="#path-31"></use>
                            </mask>
                            <g id="react-path-41"></g>
                            <g id="Color/Palette/Gray-01" mask="url(#mask-32)" fill="#FFFFB1">
                                <g transform="translate(-32.000000, -29.000000)" id="ðŸ–Color">
                                    <rect x="0" y="0" width="264" height="110"></rect>
                                </g>
                            </g>
                        </g>
                        <path d="M124,1.2794906 C130.181647,5.8351858 134,12.1057265 134,19.027915 C134,26.2334941 129.862605,32.7329769 123.228997,37.3271669 L117.57933,32.8764929 L113,33.207887 L114,30.0567821 L113.922229,29.995516 C120.022491,26.8530505 124,21.7003578 124,15.8768102 L124,1.2794906 Z M76,0.5714994 C69.232748,5.1740081 65,11.7397769 65,19.027915 C65,26.4261549 69.361602,33.080035 76.308428,37.6915723 L82.42067,32.8764929 L87,33.207887 L86,30.0567821 L86.077771,29.995516 C79.977509,26.8530505 76,21.7003578 76,15.8768102 L76,0.5714994 Z" id="Collar" fill="#F2F2F2"></path>
                    </g>
                    <g id="Face" transform="translate(88.000000, 88.000000)" fill="#000000" fill-rule="nonzero">
                        <g id="Mouth/Twinkle" transform="translate(30.000000, 60.000000)" fill-opacity="0.599999964">
                            <path d="M0,2 C0,7.371763 6.1581544,11 14,11 C21.8418456,11 28,7.371763 28,2 C28,0.8954305 27.050301,0 26,0 C24.7072748,0 24.1302316,0.9051755 24,2 C22.7575758,4.9378973 19.6832595,6.7163149 14,7 C8.3167405,6.7163149 5.2424242,4.9378973 4,2 C3.8697684,0.9051755 3.2927252,0 2,0 C0.949699,0 0,0.8954305 0,2 Z" id="Mouth"></path>
                        </g>
                        <g id="Nose/Default" transform="translate(32.000000, 42.000000)" fill-opacity="0.16">
                            <path d="M0,0 C0,4.418278 5.372583,8 12,8 C18.627417,8 24,4.418278 24,0" id="Nose"></path>
                        </g>
                        <g id="Eyes/Happy-ðŸ˜" transform="translate(4.000000, 18.000000)" fill-opacity="0.599999964">
                            <path d="M0.1601674,6.4473116 C2.006676,2.648508 6.1644225,0 10.9975803,0 C15.8136766,0 19.9591217,2.629842 21.8153518,6.4071242 C22.3667605,7.5291977 21.5821037,8.4474817 20.790607,7.7670228 C18.3395063,5.6597833 14.8587163,4.3437884 10.9975803,4.3437884 C7.2572061,4.3437884 3.8737584,5.5787519 1.4375392,7.5716412 C0.5467928,8.3002944 -0.3798988,7.5583844 0.1601674,6.4473116 Z" id="Squint"></path>
                            <path d="M58.1601674,6.4473116 C60.006676,2.648508 64.1644225,0 68.9975803,0 C73.8136766,0 77.9591217,2.629842 79.8153518,6.4071242 C80.3667605,7.5291977 79.5821037,8.4474817 78.790607,7.7670228 C76.3395063,5.6597833 72.8587163,4.3437884 68.9975803,4.3437884 C65.2572061,4.3437884 61.8737584,5.5787519 59.4375392,7.5716412 C58.5467928,8.3002944 57.6201012,7.5583844 58.1601674,6.4473116 Z" id="Squint"></path>
                        </g>
                        <g id="Eyebrow/Outline/Default" fill-opacity="0.599999964">
                            <g id="I-Browse">
                                <path d="M3.63024536,11.1585767 C7.54515501,5.64986673 18.2779197,2.56083721 27.5230268,4.83118046 C28.5957248,5.0946055 29.6788665,4.43856013 29.9422916,3.36586212 C30.2057166,2.2931641 29.5496712,1.21002236 28.4769732,0.94659732 C17.7403633,-1.69001789 5.31209962,1.88699832 0.369754639,8.84142326 C-0.270109626,9.74178291 -0.0589363917,10.9903811 0.84142326,11.6302454 C1.74178291,12.2701096 2.9903811,12.0589364 3.63024536,11.1585767 Z" id="Eyebrow"></path>
                                <path d="M61.6302461,11.1585767 C65.5451557,5.64986673 76.2779204,2.56083721 85.5230275,4.83118046 C86.5957255,5.0946055 87.6788672,4.43856013 87.9422923,3.36586212 C88.2057173,2.2931641 87.5496719,1.21002236 86.4769739,0.94659732 C75.740364,-1.69001789 63.3121003,1.88699832 58.3697553,8.84142326 C57.7298911,9.74178291 57.9410643,10.9903811 58.841424,11.6302454 C59.7417836,12.2701096 60.9903818,12.0589364 61.6302461,11.1585767 Z" id="Eyebrow" transform="translate(73.000154, 6.039198) scale(-1, 1) translate(-73.000154, -6.039198) "></path>
                            </g>
                        </g>
                    </g>
                    <g id="Top">
                        <g id="Top/Long-Hair/Curly-Clipped">
                            <mask id="mask-34" fill="white">
                                <use xlink:href="#path-33"></use>
                            </mask>
                            <g id="react-path-17"></g>
                            <g id="Top/Long-Hair/Curly" mask="url(#mask-34)">
                                <g transform="translate(24.000000, 10.000000)" id="Group">
                                    <g>
                                        <path d="M80.984735,17.7643628 C89.013215,16.6267967 97.796163,16 107,16 C117.358003,16 127.182939,16.7938545 135.999342,18.2161842 C158.451688,28.7497687 174,51.559133 174,78 L174,95.044138 C162.461887,94.672508 148.831239,80.7644306 141.449951,60.7992877 C131.312295,62.8351061 119.547256,64 107,64 C95.038684,64 83.788234,62.9413637 73.9808476,61.0787685 C66.6758772,80.6271291 53.3831001,94.301811 42,95.021902 L42,78 C42,51.1745453 58.0039076,28.0870034 80.984735,17.7643628 Z" id="Shadow" fill-opacity="0.16" fill="#000000"></path>
                                        <g id="Hair">
                                            <g id="Curly!" fill="#314756" fill-rule="nonzero">
                                                <path d="M48.7246602,89.2187346 C44.7420117,91.1711421 42,95.2653555 42,100 L42,113 C42,119.018625 46.4308707,124.002364 52.2085808,124.867187 C53.9518066,145.114792 66.4692178,162.282984 84,170.610951 L84,189 L80,189 C78.4137385,189 76.8394581,189.051297 75.2787271,189.152323 C70.3620966,186.639548 65.7724391,183.578174 61.590479,180.048925 C57.2814481,181.318646 52.7202934,182 48,182 C21.490332,182 0,160.509668 0,134 C0,119.590902 6.34904132,106.664702 16.4021743,97.866349 C11.1175746,90.6060809 8,81.6671147 8,72 C8,50.160623 23.9112243,32.0375116 44.7738169,28.5905219 C51.0188047,11.8901624 67.1208542,0 86,0 C94.0143172,0 101.528186,2.14267429 108,5.88641659 C114.471814,2.14267429 121.985683,0 130,0 C148.879146,0 164.981195,11.8901624 171.226183,28.5905219 C192.088776,32.0375116 208,50.160623 208,72 C208,81.6671147 204.882425,90.6060809 199.597826,97.866349 C209.650959,106.664702 216,119.590902 216,134 C216,160.509668 194.509668,182 168,182 C163.279707,182 158.718552,181.318646 154.409521,180.048925 C150.227561,183.578174 145.637903,186.639548 140.721273,189.152323 C139.160542,189.051297 137.586262,189 136,189 L132,189 L132,170.610951 C149.530782,162.282984 162.048193,145.114792 163.791419,124.867187 C169.569129,124.002364 174,119.018625 174,113 L174,100 C174,95.778427 171.820067,92.0660046 168.524466,89.9269981 C167.450514,89.5343912 166.370126,89.0424011 165.289302,88.4564081 C164.868503,88.3367332 164.43828,88.2394463 164,88.1659169 L164,87.7130302 C155.319369,82.4100235 146.764694,71.1747746 141.449951,56.7992877 C131.312295,58.8351061 119.547256,60 107,60 C95.038684,60 83.7882341,58.9413637 73.9808476,57.0787685 C68.7546917,71.0641476 60.4637821,82.0431875 52,87.4230168 L52,88.1659169 C50.9777341,88.3374206 49.9992949,88.6381729 49.0820602,89.050796 C48.9628927,89.1079465 48.8437566,89.1639284 48.7246602,89.2187346 Z" id="react-path-18"></path>
                                            </g>
                                            <g id="Skin/ðŸ‘¶ðŸ½-03-Brown-Clipped">
                                                <mask id="mask-36" fill="white">
                                                    <use xlink:href="#path-35"></use>
                                                </mask>
                                                <g id="react-path-18"></g>
                                                <g id="Skin/ðŸ‘¶ðŸ½-03-Brown" mask="url(#mask-36)" fill="#4A312C" fill-rule="nonzero">
                                                    <g id="Color">
                                                        <rect id="Rectangle-path" x="0" y="0" width="264" height="280"></rect>
                                                    </g>
                                                </g>
                                            </g>
                                        </g>
                                    </g>
                                </g>
                            </g>
                        </g>
                    </g>
                </g>
            </g>
        </g>
    </g>
</svg>